<svg width="113" height="32" viewBox="0 0 113 32" fill="none" xmlns="http://www.w3.org/2000/svg">
<rect width="32" height="32" fill="#252525"/>
<path d="M22.0207 4C26.6192 4 29.3333 6.64612 29.3333 11.1757H23.6918V11.222C21.0736 11.222 18.9511 13.2913 18.9511 15.844C18.9511 18.3967 21.0736 20.4661 23.6918 20.4661H29.3333V20.882C29.3333 25.3539 26.6192 28 22.0207 28H9.97925C5.38073 28 2.66666 25.3539 2.66666 20.882V11.118C2.66666 6.64612 5.38073 4 9.97925 4H22.0207ZM28.3378 13.1632C28.8876 13.1632 29.3333 13.5978 29.3333 14.1338V17.5079C29.3269 18.0414 28.8849 18.4723 28.3378 18.4786H23.7985C22.473 18.496 21.314 17.6112 21.0133 16.3524C20.8628 15.5711 21.0741 14.7648 21.5907 14.1496C22.1074 13.5345 22.8764 13.1734 23.6918 13.1632H28.3378ZM24.3318 14.7232H23.8933C23.6241 14.7201 23.3648 14.8222 23.1733 15.0067C22.9818 15.1912 22.8741 15.4428 22.8741 15.7053C22.874 16.2561 23.3285 16.7043 23.8933 16.7106H24.3318C24.8948 16.7106 25.3511 16.2657 25.3511 15.7169C25.3511 15.1681 24.8948 14.7232 24.3318 14.7232ZM16.5096 9.18825H8.98369C8.42537 9.18822 7.97093 9.62613 7.96443 10.1704C7.96443 10.7212 8.41886 11.1694 8.98369 11.1757H16.5096C17.0725 11.1757 17.5289 10.7308 17.5289 10.182C17.5289 9.63317 17.0725 9.18825 16.5096 9.18825Z" fill="#C1EE0E"/>
<path d="M43.9221 12.64V15.44H47.6821V17.216H43.9221V20.176H48.1621V22H41.6821V10.816H48.1621V12.64H43.9221ZM49.6217 17.536C49.6217 16.64 49.7977 15.8453 50.1497 15.152C50.5124 14.4587 50.9978 13.9253 51.6058 13.552C52.2244 13.1787 52.9124 12.992 53.6698 12.992C54.3311 12.992 54.9071 13.1253 55.3978 13.392C55.8991 13.6587 56.2991 13.9947 56.5978 14.4V13.136H58.8538V22H56.5978V20.704C56.3098 21.12 55.9098 21.4667 55.3978 21.744C54.8964 22.0107 54.3151 22.144 53.6538 22.144C52.9071 22.144 52.2244 21.952 51.6058 21.568C50.9978 21.184 50.5124 20.6453 50.1497 19.952C49.7977 19.248 49.6217 18.4427 49.6217 17.536ZM56.5978 17.568C56.5978 17.024 56.4911 16.56 56.2778 16.176C56.0644 15.7813 55.7764 15.4827 55.4138 15.28C55.0511 15.0667 54.6618 14.96 54.2458 14.96C53.8298 14.96 53.4458 15.0613 53.0938 15.264C52.7418 15.4667 52.4538 15.7653 52.2298 16.16C52.0164 16.544 51.9098 17.0027 51.9098 17.536C51.9098 18.0693 52.0164 18.5387 52.2298 18.944C52.4538 19.3387 52.7418 19.6427 53.0938 19.856C53.4564 20.0693 53.8404 20.176 54.2458 20.176C54.6618 20.176 55.0511 20.0747 55.4138 19.872C55.7764 19.6587 56.0644 19.36 56.2778 18.976C56.4911 18.5813 56.5978 18.112 56.5978 17.568ZM64.4335 22.144C63.7082 22.144 63.0575 22.016 62.4815 21.76C61.9055 21.4933 61.4468 21.136 61.1055 20.688C60.7748 20.24 60.5935 19.744 60.5615 19.2H62.8175C62.8602 19.5413 63.0255 19.824 63.3135 20.048C63.6122 20.272 63.9802 20.384 64.4175 20.384C64.8442 20.384 65.1748 20.2987 65.4095 20.128C65.6548 19.9573 65.7775 19.7387 65.7775 19.472C65.7775 19.184 65.6282 18.9707 65.3295 18.832C65.0415 18.6827 64.5775 18.5227 63.9375 18.352C63.2762 18.192 62.7322 18.0267 62.3055 17.856C61.8895 17.6853 61.5268 17.424 61.2175 17.072C60.9188 16.72 60.7695 16.2453 60.7695 15.648C60.7695 15.1573 60.9082 14.7093 61.1855 14.304C61.4735 13.8987 61.8788 13.5787 62.4015 13.344C62.9348 13.1093 63.5588 12.992 64.2735 12.992C65.3295 12.992 66.1722 13.2587 66.8015 13.792C67.4308 14.3147 67.7775 15.024 67.8415 15.92H65.6975C65.6655 15.568 65.5162 15.2907 65.2495 15.088C64.9935 14.8747 64.6468 14.768 64.2095 14.768C63.8042 14.768 63.4895 14.8427 63.2655 14.992C63.0522 15.1413 62.9455 15.3493 62.9455 15.616C62.9455 15.9147 63.0948 16.144 63.3935 16.304C63.6922 16.4533 64.1562 16.608 64.7855 16.768C65.4255 16.928 65.9535 17.0933 66.3695 17.264C66.7855 17.4347 67.1428 17.7013 67.4415 18.064C67.7508 18.416 67.9108 18.8853 67.9215 19.472C67.9215 19.984 67.7775 20.4427 67.4895 20.848C67.2122 21.2533 66.8068 21.5733 66.2735 21.808C65.7508 22.032 65.1375 22.144 64.4335 22.144ZM78.2403 13.136L72.7523 26.192H70.3683L72.2883 21.776L68.7363 13.136H71.2483L73.5363 19.328L75.8563 13.136H78.2403ZM91.4043 14.288C91.4043 14.8853 91.2603 15.4453 90.9722 15.968C90.6949 16.4907 90.2523 16.912 89.6443 17.232C89.0469 17.552 88.2896 17.712 87.3723 17.712H85.5003V22H83.2603V10.832H87.3723C88.2363 10.832 88.9723 10.9813 89.5803 11.28C90.1883 11.5787 90.6416 11.9893 90.9403 12.512C91.2496 13.0347 91.4043 13.6267 91.4043 14.288ZM87.2763 15.904C87.8949 15.904 88.3536 15.7653 88.6523 15.488C88.9509 15.2 89.1003 14.8 89.1003 14.288C89.1003 13.2 88.4923 12.656 87.2763 12.656H85.5003V15.904H87.2763ZM92.4186 17.536C92.4186 16.64 92.5946 15.8453 92.9466 15.152C93.3093 14.4587 93.7946 13.9253 94.4026 13.552C95.0213 13.1787 95.7093 12.992 96.4666 12.992C97.128 12.992 97.704 13.1253 98.1946 13.392C98.696 13.6587 99.096 13.9947 99.3946 14.4V13.136H101.651V22H99.3946V20.704C99.1066 21.12 98.7066 21.4667 98.1946 21.744C97.6933 22.0107 97.112 22.144 96.4506 22.144C95.704 22.144 95.0213 21.952 94.4026 21.568C93.7946 21.184 93.3093 20.6453 92.9466 19.952C92.5946 19.248 92.4186 18.4427 92.4186 17.536ZM99.3946 17.568C99.3946 17.024 99.288 16.56 99.0746 16.176C98.8613 15.7813 98.5733 15.4827 98.2106 15.28C97.848 15.0667 97.4586 14.96 97.0426 14.96C96.6266 14.96 96.2426 15.0613 95.8906 15.264C95.5386 15.4667 95.2506 15.7653 95.0266 16.16C94.8133 16.544 94.7066 17.0027 94.7066 17.536C94.7066 18.0693 94.8133 18.5387 95.0266 18.944C95.2506 19.3387 95.5386 19.6427 95.8906 19.856C96.2533 20.0693 96.6373 20.176 97.0426 20.176C97.4586 20.176 97.848 20.0747 98.2106 19.872C98.5733 19.6587 98.8613 19.36 99.0746 18.976C99.288 18.5813 99.3946 18.112 99.3946 17.568ZM112.318 13.136L106.83 26.192H104.446L106.366 21.776L102.814 13.136H105.326L107.614 19.328L109.934 13.136H112.318Z" fill="white"/>
</svg>
